{"title":"My.Girl.2.1994.iNTERNAL.DVDRip.XviD-EXViDiNT","uid":6998283,"size":736511242,"categoryP":"video","categoryS":"movies","magnet":"?xt=urn:btih:3bc640bc2b1316ed0bfebd2ae7228b8df5c8f688&amp;dn=My.Girl.2.1994.iNTERNAL.DVDRip.XviD-EXViDiNT&amp;tr=udp%3A%2F%2Ftracker.openbittorrent.com%3A80&amp;tr=udp%3A%2F%2Fopen.demonii.com%3A1337&amp;tr=udp%3A%2F%2Ftracker.coppersurfer.tk%3A6969&amp;tr=udp%3A%2F%2Fexodus.desync.com%3A6969","seeders":8,"leechers":1,"uploader":"TvTeam","files":5,"time":1327965355,"description":". \n &lt;a href=&quot;\nhttp://www.torrenting.com&quot; rel=&quot;nofollow&quot; target=&quot;_NEW&quot;&gt;\nhttp://www.torrenting.com&lt;/a&gt;          :     Once &amp; For all ;)\n\n\n               www . Torrenting . Com \n\n(((((((((((((= Enjoy No RAR releases =))))))))))))))))))))\n\n\n...................................NFO:....................................\n\n.                                                                                                     \n       \n     \n     \n       \n       \n     \n     \n                                         \n                                         \n                EXVID                    \n                                         \n         \n                                         \n         Filled the Archives             \n                                         \n         \n                                         \n                With:                    \n                                         \n         \n                                         \n                                    \n     E240                           \n                                    \n     SP               (C) 2009      \n                                         \n     \n     \n     \n                                                                                  \n                                                                                   \n                  My.Girl.2.1994.iNTERNAL.DVDRip.XviD-EXViDiNT                      \n                                                                                   \n                                                                                  \n     \n                                                                                               \nEXViD aims to iNTERNAL those releases which have been lost in the archives.\nEXViD aims to PRE non-internal releases which have poor sources and are likely skipped by others. &lt;a href=&quot;\nhttp://www.imdb.com/title/tt0110613/&quot; rel=&quot;nofollow&quot; target=&quot;_NEW&quot;&gt;\nhttp://www.imdb.com/title/tt0110613/&lt;/a&gt;\nSubtitles: EN, FR, DE, IT, ES, NL, AR, BG, CS, DA, FI, EL, IW, HI, HU, IS, NO, PL, PT, SV, TR\nDate: 2012.01\n\nDirector: Howard Zieff\n\nGenres: Comedy | Drama | Family | Romance\n\nPlot:\nVada Sultenfuss has a holiday coming up, and an assignment: to do an essay on someone she admires\nand has never met. She decides she wants to do an assignment on her mother, but quickly realizes\nshe knows very little about her. She manages to get her father to agree to let her go to LA to\nstay with her Uncle Phil and do some research on her mother. Once in LA, she finds herself under\nthe protection of Nick, the son of Phil's girlfriend, who at first is very annoyed at losing his\nholidays to escort a hick *girl* around town. However, he soon becomes more involved in the\ndifficult search.\n\nCast:\nDan Aykroyd\t...\tHarry Sultenfuss\nJamie Lee Curtis\t...\tShelly Sultenfuss\nAnna Chlumsky\t...\tVada Sultenfuss\nAustin O'Brien\t...\tNick Zsigmond\nRichard Masur\t...\tPhil Sultenfuss\nChristine Ebersole\t...\tRose Zsigmond\nJ.D. Souther\t...\tJeffrey Pommeroy (as John David Souther)\nAngeline Ball\t...\tMaggie Muldovan\nAubrey Morris\t...\tAlfred Beidermeyer\nGerrit Graham\t...\tDr. Sam Helburn\nAnthony R. Jones\t...\tArthur\nBen Stein\t...\tStanley Rosenfeld\nKeone Young\t...\tDaryl Tanaka\nRichard Beymer\t...\tPeter Webb\nJodie Markell\t...\tHillary Mitchell\n\nStats:\nFormat                                   : AVI\nFormat/Info                              : Audio Video Interleave\nFile size                                : 702 MiB\nDuration                                 : 1h 34mn\nOverall bit rate mode                    : Variable\nOverall bit rate                         : 1 036 Kbps\n\nVideo\nID                                       : 0\nFormat                                   : MPEG-4 Visual\nFormat profile                           : Advanced Simple@L5\nFormat settings, BVOP                    : 2\nFormat settings, QPel                    : No\nFormat settings, GMC                     : No warppoints\nFormat settings, Matrix                  : Default (H.263)\nCodec ID                                 : XVID\nCodec ID/Hint                            : XviD\nDuration                                 : 1h 34mn\nBit rate                                 : 895 Kbps\nWidth                                    : 608 pixels\nHeight                                   : 336 pixels\nDisplay aspect ratio                     : 16:9\nFrame rate                               : 25.000 fps\nColor space                              : YUV\nChroma subsampling                       : 4:2:0\nBit depth                                : 8 bits\nScan type                                : Progressive\nCompression mode                         : Lossy\nBits/(Pixel*Frame)                       : 0.175\nStream size                              : 607 MiB (86%)\nWriting library                          : XviD 64\n\nAudio\nID                                       : 1\nFormat                                   : MPEG Audio\nFormat version                           : Version 1\nFormat profile                           : Layer 3\nMode                                     : Joint stereo\nMode extension                           : MS Stereo\nCodec ID                                 : 55\nCodec ID/Hint                            : MP3\nDuration                                 : 1h 34mn\nBit rate mode                            : Variable\nBit rate                                 : 128 Kbps\nChannel(s)                               : 2 channels\nSampling rate                            : 48.0 KHz\nCompression mode                         : Lossy\nStream size                              : 87.0 MiB (12%)\nAlignment                                : Aligned on interleaves\nInterleave, duration                     : 24 ms (0.60 video frame)\nInterleave, preload duration             : 125 ms\nWriting library                          : LAME3.98.4\n\n\n\nRelease notes:\nEnjoy!\n\nLooking for:\n75TB+ Archives\nDUTCH/FLEMiSH Archives\n                                                                                                    \nGreets: CRBS EPiSODE FiCO FLS iLS KLASSiGER LiPSYNC MADE NODLABS RUNNER SPRiNTER      \n   \n\n                                                                    ASCII DONE BY XX^NFO 2oo9     \n \n\nRLS-Crc: 415243414445:42EECD90","torrent":{"xt":"urn:btih:3bc640bc2b1316ed0bfebd2ae7228b8df5c8f688","amp;dn":"My.Girl.2.1994.iNTERNAL.DVDRip.XviD-EXViDiNT","amp;tr":["udp%3A%2F%2Ftracker.openbittorrent.com%3A80","udp%3A%2F%2Fopen.demonii.com%3A1337","udp%3A%2F%2Ftracker.coppersurfer.tk%3A6969","udp%3A%2F%2Fexodus.desync.com%3A6969"],"infoHash":"3bc640bc2b1316ed0bfebd2ae7228b8df5c8f688","infoHashBuffer":{"type":"Buffer","data":[59,198,64,188,43,19,22,237,11,254,189,42,231,34,139,141,245,200,246,136]},"announce":[],"urlList":[]}}